<svg aria-hidden="true" style="position: absolute; width: 0; height: 0; overflow: hidden;" version="1.1" xmlns="http://www.w3.org/2000/svg" xmlns:xlink="http://www.w3.org/1999/xlink">
    <defs>
        <symbol id="location" viewBox="0 0 32 32">
            <path d="M16 0c-5.523 0-10 4.477-10 10 0 10 10 22 10 22s10-12 10-22c0-5.523-4.477-10-10-10zM16 16c-3.314 0-6-2.686-6-6s2.686-6 6-6 6 2.686 6 6-2.686 6-6 6z"></path>
        </symbol>
        <symbol id="phone" viewBox="0 0 32 32">
            <path d="M22 20c-2 2-2 4-4 4s-4-2-6-4-4-4-4-6 2-2 4-4-4-8-6-8-6 6-6 6c0 4 4.109 12.109 8 16s12 8 16 8c0 0 6-4 6-6s-6-8-8-6z"></path>
        </symbol>
        <symbol id="chevron-down" width="24" height="24" viewBox="0 0 24 24" x="0" y="0">
            <path fill="#222" d="M5.293 9.707l6 6c0.391 0.391 1.024 0.391 1.414 0l6-6c0.391-0.391 0.391-1.024 0-1.414s-1.024-0.391-1.414 0l-5.293 5.293-5.293-5.293c-0.391-0.391-1.024-0.391-1.414 0s-0.391 1.024 0 1.414z"></path>
        </symbol>
        <symbol id="website" style="fill: #333333;" viewBox="0 0 32 32">
            <path d="M15 2c-8.284 0-15 6.716-15 15s6.716 15 15 15c8.284 0 15-6.716 15-15s-6.716-15-15-15zM23.487 22c0.268-1.264 0.437-2.606 0.492-4h3.983c-0.104 1.381-0.426 2.722-0.959 4h-3.516zM6.513 12c-0.268 1.264-0.437 2.606-0.492 4h-3.983c0.104-1.381 0.426-2.722 0.959-4h3.516zM21.439 12c0.3 1.28 0.481 2.62 0.54 4h-5.979v-4h5.439zM16 10v-5.854c0.456 0.133 0.908 0.355 1.351 0.668 0.831 0.586 1.625 1.488 2.298 2.609 0.465 0.775 0.867 1.638 1.203 2.578h-4.852zM10.351 7.422c0.673-1.121 1.467-2.023 2.298-2.609 0.443-0.313 0.895-0.535 1.351-0.668v5.854h-4.852c0.336-0.94 0.738-1.803 1.203-2.578zM14 12v4h-5.979c0.059-1.38 0.24-2.72 0.54-4h5.439zM2.997 22c-0.533-1.278-0.854-2.619-0.959-4h3.983c0.055 1.394 0.224 2.736 0.492 4h-3.516zM8.021 18h5.979v4h-5.439c-0.3-1.28-0.481-2.62-0.54-4zM14 24v5.854c-0.456-0.133-0.908-0.355-1.351-0.668-0.831-0.586-1.625-1.488-2.298-2.609-0.465-0.775-0.867-1.638-1.203-2.578h4.852zM19.649 26.578c-0.673 1.121-1.467 2.023-2.298 2.609-0.443 0.312-0.895 0.535-1.351 0.668v-5.854h4.852c-0.336 0.94-0.738 1.802-1.203 2.578zM16 22v-4h5.979c-0.059 1.38-0.24 2.72-0.54 4h-5.439zM23.98 16c-0.055-1.394-0.224-2.736-0.492-4h3.516c0.533 1.278 0.855 2.619 0.959 4h-3.983zM25.958 10h-2.997c-0.582-1.836-1.387-3.447-2.354-4.732 1.329 0.636 2.533 1.488 3.585 2.54 0.671 0.671 1.261 1.404 1.766 2.192zM5.808 7.808c1.052-1.052 2.256-1.904 3.585-2.54-0.967 1.285-1.771 2.896-2.354 4.732h-2.997c0.504-0.788 1.094-1.521 1.766-2.192zM4.042 24h2.997c0.583 1.836 1.387 3.447 2.354 4.732-1.329-0.636-2.533-1.488-3.585-2.54-0.671-0.671-1.261-1.404-1.766-2.192zM24.192 26.192c-1.052 1.052-2.256 1.904-3.585 2.54 0.967-1.285 1.771-2.896 2.354-4.732h2.997c-0.504 0.788-1.094 1.521-1.766 2.192z"></path>
        </symbol>
        <symbol id="house" viewBox="0 0 32 32">
            <path d="M32 19l-6-6v-9h-4v5l-6-6-16 16v1h4v10h10v-6h4v6h10v-10h4z"></path>
        </symbol>
        <symbol id="camera" viewBox="0 0 32 32">
            <path d="M12 9c0-2.761 2.239-5 5-5s5 2.239 5 5c0 2.761-2.239 5-5 5s-5-2.239-5-5zM0 9c0-2.761 2.239-5 5-5s5 2.239 5 5c0 2.761-2.239 5-5 5s-5-2.239-5-5zM24 19v-3c0-1.1-0.9-2-2-2h-20c-1.1 0-2 0.9-2 2v10c0 1.1 0.9 2 2 2h20c1.1 0 2-0.9 2-2v-3l8 5v-14l-8 5zM20 24h-16v-6h16v6z"></path>
        </symbol>
        <symbol id="building" viewBox="0 0 32 32">
            <path d="M0 32h16v-32h-16v32zM10 4h4v4h-4v-4zM10 12h4v4h-4v-4zM10 20h4v4h-4v-4zM2 4h4v4h-4v-4zM2 12h4v4h-4v-4zM2 20h4v4h-4v-4zM18 10h14v2h-14zM18 32h4v-8h6v8h4v-18h-14z"></path>
        </symbol>
        <symbol id="people" viewBox="0 0 32 32">
            <path d="M9.266 14c-1.625 0.047-3.094 0.75-4.141 2h-2.094c-1.563 0-3.031-0.75-3.031-2.484 0-1.266-0.047-5.516 1.937-5.516 0.328 0 1.953 1.328 4.062 1.328 0.719 0 1.406-0.125 2.078-0.359-0.047 0.344-0.078 0.688-0.078 1.031 0 1.422 0.453 2.828 1.266 4zM26 23.953c0 2.531-1.672 4.047-4.172 4.047h-13.656c-2.5 0-4.172-1.516-4.172-4.047 0-3.531 0.828-8.953 5.406-8.953 0.531 0 2.469 2.172 5.594 2.172s5.063-2.172 5.594-2.172c4.578 0 5.406 5.422 5.406 8.953zM10 4c0 2.203-1.797 4-4 4s-4-1.797-4-4 1.797-4 4-4 4 1.797 4 4zM21 10c0 3.313-2.688 6-6 6s-6-2.688-6-6 2.688-6 6-6 6 2.688 6 6zM30 13.516c0 1.734-1.469 2.484-3.031 2.484h-2.094c-1.047-1.25-2.516-1.953-4.141-2 0.812-1.172 1.266-2.578 1.266-4 0-0.344-0.031-0.688-0.078-1.031 0.672 0.234 1.359 0.359 2.078 0.359 2.109 0 3.734-1.328 4.062-1.328 1.984 0 1.937 4.25 1.937 5.516zM28 4c0 2.203-1.797 4-4 4s-4-1.797-4-4 1.797-4 4-4 4 1.797 4 4z"></path>
        </symbol>
        <symbol id="book" viewBox="0 0 32 32">
            <path d="M6 0v32h24v-32h-24zM18 8.010c2.203 0 3.99 1.786 3.99 3.99s-1.786 3.99-3.99 3.99-3.99-1.786-3.99-3.99 1.786-3.99 3.99-3.99v0zM24 24h-12v-2c0-2.209 1.791-4 4-4v0h4c2.209 0 4 1.791 4 4v2z"></path>
            <path d="M2 2h3v6h-3v-6z"></path>
            <path d="M2 10h3v6h-3v-6z"></path>
            <path d="M2 18h3v6h-3v-6z"></path>
            <path d="M2 26h3v6h-3v-6z"></path>
        </symbol>
        <symbol id="mail" viewBox="0 0 32 32">
            <path d="M29 4h-26c-1.657 0-3 1.343-3 3v18c0 1.656 1.343 3 3 3h26c1.657 0 3-1.344 3-3v-18c0-1.657-1.343-3-3-3zM2.741 25.99l-0.731-0.732 8.249-8.248 0.731 0.732-8.249 8.248zM29.259 25.99l-8.249-8.248 0.731-0.732 8.249 8.248-0.731 0.732zM17 19.325v0.675h-2v-0.675l-12.997-12.050 1.272-1.272 12.725 11.798 12.725-11.798 1.272 1.272-12.997 12.050z"></path>
        </symbol>
        <symbol id="business_center" viewBox="0 0 24 24" style="fill: #333">
            <path d="M14.016 6.984v-1.969h-4.031v1.969h4.031zM20.016 6.984q0.797 0 1.383 0.609t0.586 1.406v3q0 0.797-0.586 1.406t-1.383 0.609h-6v-2.016h-4.031v2.016h-6q-0.844 0-1.406-0.586t-0.563-1.43v-3q0-0.797 0.586-1.406t1.383-0.609h3.984v-1.969l2.016-2.016h3.984l2.016 2.016v1.969h4.031zM9.984 15.984h4.031v-0.984h6.984v3.984q0 0.844-0.586 1.43t-1.43 0.586h-13.969q-0.844 0-1.43-0.586t-0.586-1.43v-3.984h6.984v0.984z"></path>
        </symbol>
        <symbol id="twitter" viewBox="0 0 38 39" fill="none" xmlns="http://www.w3.org/2000/svg">
            <path d="M24.5062 9.57806C23.3208 9.57786 22.1827 10.0429 21.3366 10.8732C20.4906 11.7035 20.0042 12.8326 19.9822 14.0178L19.9385 16.4748C19.9361 16.6069 19.9059 16.7369 19.8497 16.8565C19.7935 16.976 19.7126 17.0823 19.6125 17.1683C19.5123 17.2544 19.395 17.3182 19.2683 17.3557C19.1417 17.3932 19.0086 17.4035 18.8777 17.3859L16.441 17.0536C13.2383 16.6168 10.1682 15.1426 7.22136 12.6887C6.29004 17.8523 8.11056 21.4294 12.4988 24.189L15.2242 25.9019C15.3534 25.9832 15.4608 26.0949 15.537 26.2273C15.6132 26.3596 15.6558 26.5086 15.6612 26.6612C15.6666 26.8138 15.6346 26.9654 15.5679 27.1028C15.5012 27.2402 15.402 27.3592 15.2788 27.4494L12.7952 29.2653C14.2726 29.3589 15.675 29.2933 16.8388 29.0625C24.1988 27.5929 29.0926 22.0549 29.0926 12.9196C29.0926 12.1739 27.5123 9.57806 24.5062 9.57806ZM16.8622 13.9617C16.8894 12.4579 17.3596 10.9956 18.214 9.75781C19.0684 8.52003 20.2689 7.56179 21.6653 7.00307C23.0616 6.44436 24.5918 6.30999 26.0642 6.61679C27.5366 6.92359 28.8857 7.65793 29.9428 8.72786C31.0519 8.72006 31.9957 9.00086 34.1048 7.7201C33.5838 10.2785 33.3248 11.3908 32.2126 12.918C32.2126 24.838 24.8852 30.6365 17.4487 32.1201C12.3522 33.1372 4.93752 31.4664 2.81592 29.2465C3.897 29.1639 8.2962 28.6912 10.839 26.8285C8.6862 25.4089 0.124918 20.3701 5.75184 6.82622C8.39292 9.91034 11.0714 12.0085 13.7858 13.1239C15.5908 13.8649 16.0354 13.8493 16.8637 13.9632L16.8622 13.9617Z" fill="white"/>
        </symbol>
        <symbol id="linkedin" viewBox="0 0 38 38" fill="none" xmlns="http://www.w3.org/2000/svg">
            <path d="M10.8264 7.79978C10.826 8.62726 10.4969 9.42068 9.9115 10.0055C9.32609 10.5903 8.53234 10.9186 7.70487 10.9182C6.87739 10.9178 6.08397 10.5887 5.49915 10.0033C4.91433 9.41789 4.58601 8.62414 4.58643 7.79666C4.58684 6.96919 4.91595 6.17577 5.50136 5.59095C6.08676 5.00613 6.88051 4.67781 7.70799 4.67822C8.53546 4.67864 9.32888 5.00775 9.9137 5.59315C10.4985 6.17856 10.8268 6.97231 10.8264 7.79978ZM10.92 13.2286H4.68003V32.7598H10.92V13.2286ZM20.7792 13.2286H14.5704V32.7598H20.7168V22.5106C20.7168 16.801 28.158 16.2706 28.158 22.5106V32.7598H34.32V20.389C34.32 10.7638 23.3064 11.1226 20.7168 15.8494L20.7792 13.2286Z" fill="white"/>
        </symbol>
        <symbol id="instagram" viewBox="0 0 36 37" fill="none" xmlns="http://www.w3.org/2000/svg">
            <path d="M13.5751 33.7301H22.5451C30.0201 33.7301 33.0101 30.7401 33.0101 23.2651V14.2951C33.0101 6.82008 30.0201 3.83008 22.5451 3.83008H13.5751C6.10011 3.83008 3.11011 6.82008 3.11011 14.2951V23.2651C3.11011 30.7401 6.10011 33.7301 13.5751 33.7301Z" stroke="white" stroke-width="2.4" stroke-linecap="round" stroke-linejoin="round"/>
            <path d="M18.0601 24.0124C18.7473 24.0124 19.4277 23.877 20.0625 23.6141C20.6974 23.3511 21.2742 22.9657 21.7601 22.4798C22.246 21.9939 22.6314 21.4171 22.8943 20.7823C23.1573 20.1474 23.2926 19.467 23.2926 18.7799C23.2926 18.0927 23.1573 17.4123 22.8943 16.7775C22.6314 16.1426 22.246 15.5658 21.7601 15.0799C21.2742 14.594 20.6974 14.2086 20.0625 13.9457C19.4277 13.6827 18.7473 13.5474 18.0601 13.5474C16.6724 13.5474 15.3415 14.0986 14.3602 15.0799C13.3789 16.0612 12.8276 17.3921 12.8276 18.7799C12.8276 20.1676 13.3789 21.4985 14.3602 22.4798C15.3415 23.4611 16.6724 24.0124 18.0601 24.0124Z" stroke="white" stroke-width="2.4" stroke-linecap="round" stroke-linejoin="round"/>
            <path d="M26.4858 11.3047H26.5036" stroke="white" stroke-width="2.4" stroke-linecap="round" stroke-linejoin="round"/>
        </symbol>
    </defs>
</svg>