<?xml version="1.0" encoding="utf-8"?>
<!-- Generated by IcoMoon.io -->
<svg version="1.1" xmlns="http://www.w3.org/2000/svg" xmlns:xlink="http://www.w3.org/1999/xlink" width="624" viewBox="0 0 624 24">
<symbol id="chevron-down" viewBox="0 0 24 24" x="0" y="0">
<path d="M5.293 9.707l6 6c0.391 0.391 1.024 0.391 1.414 0l6-6c0.391-0.391 0.391-1.024 0-1.414s-1.024-0.391-1.414 0l-5.293 5.293-5.293-5.293c-0.391-0.391-1.024-0.391-1.414 0s-0.391 1.024 0 1.414z"></path>
</symbol>
<symbol id="twitter" viewBox="0 0 38 39" fill="none" xmlns="http://www.w3.org/2000/svg">
    <path d="M24.5062 9.57806C23.3208 9.57786 22.1827 10.0429 21.3366 10.8732C20.4906 11.7035 20.0042 12.8326 19.9822 14.0178L19.9385 16.4748C19.9361 16.6069 19.9059 16.7369 19.8497 16.8565C19.7935 16.976 19.7126 17.0823 19.6125 17.1683C19.5123 17.2544 19.395 17.3182 19.2683 17.3557C19.1417 17.3932 19.0086 17.4035 18.8777 17.3859L16.441 17.0536C13.2383 16.6168 10.1682 15.1426 7.22136 12.6887C6.29004 17.8523 8.11056 21.4294 12.4988 24.189L15.2242 25.9019C15.3534 25.9832 15.4608 26.0949 15.537 26.2273C15.6132 26.3596 15.6558 26.5086 15.6612 26.6612C15.6666 26.8138 15.6346 26.9654 15.5679 27.1028C15.5012 27.2402 15.402 27.3592 15.2788 27.4494L12.7952 29.2653C14.2726 29.3589 15.675 29.2933 16.8388 29.0625C24.1988 27.5929 29.0926 22.0549 29.0926 12.9196C29.0926 12.1739 27.5123 9.57806 24.5062 9.57806ZM16.8622 13.9617C16.8894 12.4579 17.3596 10.9956 18.214 9.75781C19.0684 8.52003 20.2689 7.56179 21.6653 7.00307C23.0616 6.44436 24.5918 6.30999 26.0642 6.61679C27.5366 6.92359 28.8857 7.65793 29.9428 8.72786C31.0519 8.72006 31.9957 9.00086 34.1048 7.7201C33.5838 10.2785 33.3248 11.3908 32.2126 12.918C32.2126 24.838 24.8852 30.6365 17.4487 32.1201C12.3522 33.1372 4.93752 31.4664 2.81592 29.2465C3.897 29.1639 8.2962 28.6912 10.839 26.8285C8.6862 25.4089 0.124918 20.3701 5.75184 6.82622C8.39292 9.91034 11.0714 12.0085 13.7858 13.1239C15.5908 13.8649 16.0354 13.8493 16.8637 13.9632L16.8622 13.9617Z" fill="white"/>
</symbol>
<symbol id="linkedin" viewBox="0 0 38 38" fill="none" xmlns="http://www.w3.org/2000/svg">
    <path d="M10.8264 7.79978C10.826 8.62726 10.4969 9.42068 9.9115 10.0055C9.32609 10.5903 8.53234 10.9186 7.70487 10.9182C6.87739 10.9178 6.08397 10.5887 5.49915 10.0033C4.91433 9.41789 4.58601 8.62414 4.58643 7.79666C4.58684 6.96919 4.91595 6.17577 5.50136 5.59095C6.08676 5.00613 6.88051 4.67781 7.70799 4.67822C8.53546 4.67864 9.32888 5.00775 9.9137 5.59315C10.4985 6.17856 10.8268 6.97231 10.8264 7.79978ZM10.92 13.2286H4.68003V32.7598H10.92V13.2286ZM20.7792 13.2286H14.5704V32.7598H20.7168V22.5106C20.7168 16.801 28.158 16.2706 28.158 22.5106V32.7598H34.32V20.389C34.32 10.7638 23.3064 11.1226 20.7168 15.8494L20.7792 13.2286Z" fill="white"/>
</symbol>
<symbol id="instagram" viewBox="0 0 36 37" fill="none" xmlns="http://www.w3.org/2000/svg">
    <path d="M13.5751 33.7301H22.5451C30.0201 33.7301 33.0101 30.7401 33.0101 23.2651V14.2951C33.0101 6.82008 30.0201 3.83008 22.5451 3.83008H13.5751C6.10011 3.83008 3.11011 6.82008 3.11011 14.2951V23.2651C3.11011 30.7401 6.10011 33.7301 13.5751 33.7301Z" stroke="white" stroke-width="2.4" stroke-linecap="round" stroke-linejoin="round"/>
    <path d="M18.0601 24.0124C18.7473 24.0124 19.4277 23.877 20.0625 23.6141C20.6974 23.3511 21.2742 22.9657 21.7601 22.4798C22.246 21.9939 22.6314 21.4171 22.8943 20.7823C23.1573 20.1474 23.2926 19.467 23.2926 18.7799C23.2926 18.0927 23.1573 17.4123 22.8943 16.7775C22.6314 16.1426 22.246 15.5658 21.7601 15.0799C21.2742 14.594 20.6974 14.2086 20.0625 13.9457C19.4277 13.6827 18.7473 13.5474 18.0601 13.5474C16.6724 13.5474 15.3415 14.0986 14.3602 15.0799C13.3789 16.0612 12.8276 17.3921 12.8276 18.7799C12.8276 20.1676 13.3789 21.4985 14.3602 22.4798C15.3415 23.4611 16.6724 24.0124 18.0601 24.0124Z" stroke="white" stroke-width="2.4" stroke-linecap="round" stroke-linejoin="round"/>
    <path d="M26.4858 11.3047H26.5036" stroke="white" stroke-width="2.4" stroke-linecap="round" stroke-linejoin="round"/>
</symbol>
</svg>
